<mxfile host="Electron" modified="2023-04-12T12:17:51.670Z" agent="Mozilla/5.0 (Windows NT 10.0; Win64; x64) AppleWebKit/537.36 (KHTML, like Gecko) draw.io/21.1.2 Chrome/106.0.5249.199 Electron/21.4.3 Safari/537.36" etag="41owUUnmrWtv6-XHFPLK" version="21.1.2" type="device">
  <diagram name="第 1 页" id="p6w_lGA0zB7Tl3CI8md5">
    <mxGraphModel dx="2059" dy="2041" grid="1" gridSize="10" guides="1" tooltips="1" connect="1" arrows="1" fold="1" page="1" pageScale="1" pageWidth="827" pageHeight="1169" math="0" shadow="0">
      <root>
        <mxCell id="0" />
        <mxCell id="1" parent="0" />
        <mxCell id="Al9h8sFwPv35eSC6eiJV-1" value="" style="rounded=0;whiteSpace=wrap;html=1;" vertex="1" parent="1">
          <mxGeometry x="80" y="40" width="80" height="40" as="geometry" />
        </mxCell>
        <mxCell id="Al9h8sFwPv35eSC6eiJV-2" value="" style="rounded=0;whiteSpace=wrap;html=1;" vertex="1" parent="1">
          <mxGeometry x="160" y="40" width="80" height="40" as="geometry" />
        </mxCell>
        <mxCell id="Al9h8sFwPv35eSC6eiJV-3" value="" style="rounded=0;whiteSpace=wrap;html=1;" vertex="1" parent="1">
          <mxGeometry x="240" y="40" width="80" height="40" as="geometry" />
        </mxCell>
        <mxCell id="Al9h8sFwPv35eSC6eiJV-4" value="" style="rounded=0;whiteSpace=wrap;html=1;fillColor=#d5e8d4;strokeColor=#82b366;" vertex="1" parent="1">
          <mxGeometry x="320" y="40" width="50" height="40" as="geometry" />
        </mxCell>
        <mxCell id="Al9h8sFwPv35eSC6eiJV-5" value="" style="rounded=0;whiteSpace=wrap;html=1;fillColor=#ffe6cc;strokeColor=#d79b00;" vertex="1" parent="1">
          <mxGeometry x="400" y="40" width="80" height="40" as="geometry" />
        </mxCell>
        <mxCell id="Al9h8sFwPv35eSC6eiJV-6" value="" style="rounded=0;whiteSpace=wrap;html=1;fillColor=#ffe6cc;strokeColor=#d79b00;" vertex="1" parent="1">
          <mxGeometry x="480" y="40" width="80" height="40" as="geometry" />
        </mxCell>
        <mxCell id="Al9h8sFwPv35eSC6eiJV-8" value="&lt;font style=&quot;font-size: 18px;&quot;&gt;page数组&lt;/font&gt;" style="text;strokeColor=none;align=center;fillColor=none;html=1;verticalAlign=middle;whiteSpace=wrap;rounded=0;" vertex="1" parent="1">
          <mxGeometry x="-20" y="40" width="90" height="30" as="geometry" />
        </mxCell>
        <mxCell id="Al9h8sFwPv35eSC6eiJV-9" value="" style="rounded=0;whiteSpace=wrap;html=1;fillColor=#ffe6cc;strokeColor=#d79b00;" vertex="1" parent="1">
          <mxGeometry x="370" y="40" width="30" height="40" as="geometry" />
        </mxCell>
        <mxCell id="Al9h8sFwPv35eSC6eiJV-12" value="" style="endArrow=classic;html=1;rounded=0;entryX=0.876;entryY=1.02;entryDx=0;entryDy=0;entryPerimeter=0;" edge="1" parent="1" target="Al9h8sFwPv35eSC6eiJV-6">
          <mxGeometry width="50" height="50" relative="1" as="geometry">
            <mxPoint x="550" y="120" as="sourcePoint" />
            <mxPoint x="570" y="90" as="targetPoint" />
          </mxGeometry>
        </mxCell>
        <mxCell id="Al9h8sFwPv35eSC6eiJV-13" value="&lt;font style=&quot;font-size: 18px;&quot;&gt;初始偏移量p&lt;/font&gt;" style="text;strokeColor=none;align=center;fillColor=none;html=1;verticalAlign=middle;whiteSpace=wrap;rounded=0;" vertex="1" parent="1">
          <mxGeometry x="490" y="127" width="120" height="10" as="geometry" />
        </mxCell>
        <mxCell id="Al9h8sFwPv35eSC6eiJV-14" value="" style="endArrow=classic;html=1;rounded=0;entryX=0.876;entryY=1.02;entryDx=0;entryDy=0;entryPerimeter=0;" edge="1" parent="1">
          <mxGeometry width="50" height="50" relative="1" as="geometry">
            <mxPoint x="369.52" y="119" as="sourcePoint" />
            <mxPoint x="369.52" y="80" as="targetPoint" />
          </mxGeometry>
        </mxCell>
        <mxCell id="Al9h8sFwPv35eSC6eiJV-15" value="&lt;span style=&quot;font-size: 18px;&quot;&gt;当前偏移量p&lt;/span&gt;" style="text;strokeColor=none;align=center;fillColor=none;html=1;verticalAlign=middle;whiteSpace=wrap;rounded=0;" vertex="1" parent="1">
          <mxGeometry x="310" y="127" width="120" height="10" as="geometry" />
        </mxCell>
        <mxCell id="Al9h8sFwPv35eSC6eiJV-16" value="" style="shape=curlyBracket;whiteSpace=wrap;html=1;rounded=1;labelPosition=left;verticalLabelPosition=middle;align=right;verticalAlign=middle;rotation=90;" vertex="1" parent="1">
          <mxGeometry x="430" y="-110" width="20" height="240" as="geometry" />
        </mxCell>
        <mxCell id="Al9h8sFwPv35eSC6eiJV-17" value="" style="shape=curlyBracket;whiteSpace=wrap;html=1;rounded=1;labelPosition=left;verticalLabelPosition=middle;align=right;verticalAlign=middle;rotation=90;" vertex="1" parent="1">
          <mxGeometry x="190" y="-110" width="20" height="240" as="geometry" />
        </mxCell>
        <mxCell id="Al9h8sFwPv35eSC6eiJV-18" value="&lt;font style=&quot;font-size: 18px;&quot;&gt;未分配页面&lt;/font&gt;" style="text;strokeColor=none;align=center;fillColor=none;html=1;verticalAlign=middle;whiteSpace=wrap;rounded=0;" vertex="1" parent="1">
          <mxGeometry x="150" y="-30" width="110" height="30" as="geometry" />
        </mxCell>
        <mxCell id="Al9h8sFwPv35eSC6eiJV-19" value="&lt;font style=&quot;font-size: 18px;&quot;&gt;已分配页面&lt;/font&gt;" style="text;strokeColor=none;align=center;fillColor=none;html=1;verticalAlign=middle;whiteSpace=wrap;rounded=0;" vertex="1" parent="1">
          <mxGeometry x="385" y="-30" width="110" height="30" as="geometry" />
        </mxCell>
        <mxCell id="Al9h8sFwPv35eSC6eiJV-20" value="" style="endArrow=none;dashed=1;html=1;dashPattern=1 3;strokeWidth=2;rounded=0;entryX=1;entryY=1;entryDx=0;entryDy=0;" edge="1" parent="1" target="Al9h8sFwPv35eSC6eiJV-4">
          <mxGeometry width="50" height="50" relative="1" as="geometry">
            <mxPoint x="200" y="190" as="sourcePoint" />
            <mxPoint x="340" y="110" as="targetPoint" />
          </mxGeometry>
        </mxCell>
        <mxCell id="Al9h8sFwPv35eSC6eiJV-22" value="" style="endArrow=none;dashed=1;html=1;dashPattern=1 3;strokeWidth=2;rounded=0;entryX=1;entryY=1;entryDx=0;entryDy=0;exitX=1;exitY=0;exitDx=0;exitDy=0;" edge="1" parent="1" source="Al9h8sFwPv35eSC6eiJV-34" target="Al9h8sFwPv35eSC6eiJV-6">
          <mxGeometry width="50" height="50" relative="1" as="geometry">
            <mxPoint x="689.4117647058823" y="190" as="sourcePoint" />
            <mxPoint x="480" y="160" as="targetPoint" />
          </mxGeometry>
        </mxCell>
        <mxCell id="Al9h8sFwPv35eSC6eiJV-23" value="argv" style="rounded=0;whiteSpace=wrap;html=1;fillColor=#f8cecc;strokeColor=#b85450;" vertex="1" parent="1">
          <mxGeometry x="200" y="190" width="40" height="30" as="geometry" />
        </mxCell>
        <mxCell id="Al9h8sFwPv35eSC6eiJV-24" value="argv" style="rounded=0;whiteSpace=wrap;html=1;fillColor=#f8cecc;strokeColor=#b85450;" vertex="1" parent="1">
          <mxGeometry x="240" y="190" width="40" height="30" as="geometry" />
        </mxCell>
        <mxCell id="Al9h8sFwPv35eSC6eiJV-25" value="argv" style="rounded=0;whiteSpace=wrap;html=1;fillColor=#f8cecc;strokeColor=#b85450;" vertex="1" parent="1">
          <mxGeometry x="280" y="190" width="40" height="30" as="geometry" />
        </mxCell>
        <mxCell id="Al9h8sFwPv35eSC6eiJV-26" value="argv" style="rounded=0;whiteSpace=wrap;html=1;fillColor=#f8cecc;strokeColor=#b85450;" vertex="1" parent="1">
          <mxGeometry x="320" y="190" width="40" height="30" as="geometry" />
        </mxCell>
        <mxCell id="Al9h8sFwPv35eSC6eiJV-27" value="argv" style="rounded=0;whiteSpace=wrap;html=1;fillColor=#f8cecc;strokeColor=#b85450;" vertex="1" parent="1">
          <mxGeometry x="360" y="190" width="40" height="30" as="geometry" />
        </mxCell>
        <mxCell id="Al9h8sFwPv35eSC6eiJV-28" value="argv" style="rounded=0;whiteSpace=wrap;html=1;fillColor=#f8cecc;strokeColor=#b85450;" vertex="1" parent="1">
          <mxGeometry x="400" y="190" width="40" height="30" as="geometry" />
        </mxCell>
        <mxCell id="Al9h8sFwPv35eSC6eiJV-29" value="envp" style="rounded=0;whiteSpace=wrap;html=1;fillColor=#fff2cc;strokeColor=#d6b656;" vertex="1" parent="1">
          <mxGeometry x="440" y="190" width="40" height="30" as="geometry" />
        </mxCell>
        <mxCell id="Al9h8sFwPv35eSC6eiJV-30" value="envp" style="rounded=0;whiteSpace=wrap;html=1;fillColor=#fff2cc;strokeColor=#d6b656;" vertex="1" parent="1">
          <mxGeometry x="480" y="190" width="40" height="30" as="geometry" />
        </mxCell>
        <mxCell id="Al9h8sFwPv35eSC6eiJV-31" value="envp" style="rounded=0;whiteSpace=wrap;html=1;fillColor=#fff2cc;strokeColor=#d6b656;" vertex="1" parent="1">
          <mxGeometry x="520" y="190" width="40" height="30" as="geometry" />
        </mxCell>
        <mxCell id="Al9h8sFwPv35eSC6eiJV-32" value="envp" style="rounded=0;whiteSpace=wrap;html=1;fillColor=#fff2cc;strokeColor=#d6b656;" vertex="1" parent="1">
          <mxGeometry x="560" y="190" width="40" height="30" as="geometry" />
        </mxCell>
        <mxCell id="Al9h8sFwPv35eSC6eiJV-33" value="envp" style="rounded=0;whiteSpace=wrap;html=1;fillColor=#fff2cc;strokeColor=#d6b656;" vertex="1" parent="1">
          <mxGeometry x="600" y="190" width="40" height="30" as="geometry" />
        </mxCell>
        <mxCell id="Al9h8sFwPv35eSC6eiJV-34" value="envp" style="rounded=0;whiteSpace=wrap;html=1;fillColor=#fff2cc;strokeColor=#d6b656;" vertex="1" parent="1">
          <mxGeometry x="640" y="190" width="40" height="30" as="geometry" />
        </mxCell>
      </root>
    </mxGraphModel>
  </diagram>
</mxfile>
